HIERARCHY
ROOT rot
{
	OFFSET 5.900000 0.000000 0.000000 
	CHANNELS 0 Xposition Yposition Zposition
	JOINT right_decoded
	{
		OFFSET 1.100008 0.000000 0.000000 
		CHANNELS 6 Xposition Yposition Zposition Zrotation Yrotation Xrotation
		JOINT joint_1
		{
			OFFSET 1.363060 -1.794630 0.839290 
			CHANNELS 3 Zrotation Yrotation Xrotation
			JOINT joint_2
			{
				OFFSET 2.448110 -6.726130 0.000000 
				CHANNELS 3 Zrotation Yrotation Xrotation
				JOINT joint_3
				{
					OFFSET 2.562200 -7.039590 0.000000 
					CHANNELS 3 Zrotation Yrotation Xrotation
					JOINT joint_4
					{
						OFFSET 0.157640 -0.433110 2.322550 
						CHANNELS 3 Zrotation Yrotation Xrotation
						End Site
						{
							OFFSET 0.000000 0.000000 0.000000 
						}
					}
				}
			}
		}
		JOINT joint_5
		{
			OFFSET -1.305520 -1.794630 0.839290 
			CHANNELS 3 Zrotation Yrotation Xrotation
			JOINT joint_6
			{
				OFFSET -2.542530 -6.985550 0.000000 
				CHANNELS 3 Zrotation Yrotation Xrotation
				JOINT joint_7
				{
					OFFSET -2.568260 -7.056230 0.000000 
					CHANNELS 3 Zrotation Yrotation Xrotation
					JOINT joint_8
					{
						OFFSET -0.164730 -0.452590 2.363150 
						CHANNELS 3 Zrotation Yrotation Xrotation
						End Site
						{
							OFFSET 0.000000 0.000000 0.000000 
						}
					}
				}
			}
		}
		JOINT joint_9
		{
			OFFSET 0.028270 2.035590 -0.193380 
			CHANNELS 3 Zrotation Yrotation Xrotation
			JOINT joint_10
			{
				OFFSET 0.056720 2.048850 -0.042750 
				CHANNELS 3 Zrotation Yrotation Xrotation
				JOINT joint_11
				{
					OFFSET -0.054170 1.746240 0.172020 
					CHANNELS 3 Zrotation Yrotation Xrotation
					JOINT joint_12
					{
						OFFSET 0.104070 1.761360 -0.123970 
						CHANNELS 3 Zrotation Yrotation Xrotation
						End Site
						{
							OFFSET 0.000000 0.000000 0.000000 
						}
					}
				}
				JOINT joint_13
				{
					OFFSET 3.362410 1.200890 -0.311210 
					CHANNELS 3 Zrotation Yrotation Xrotation
					JOINT joint_14
					{
						OFFSET 4.983000 -0.000000 -0.000000 
						CHANNELS 3 Zrotation Yrotation Xrotation
						JOINT joint_15
						{
							OFFSET 3.483560 -0.000000 -0.000000 
							CHANNELS 3 Zrotation Yrotation Xrotation
							JOINT joint_16
							{
								OFFSET 0.715260 -0.000000 -0.000000 
								CHANNELS 3 Zrotation Yrotation Xrotation
								End Site
								{
									OFFSET 0.000000 0.000000 0.000000 
								}
							}
						}
					}
				}
				JOINT joint_17
				{
					OFFSET -3.136600 1.374050 -0.404650 
					CHANNELS 3 Zrotation Yrotation Xrotation
					JOINT joint_18
					{
						OFFSET -5.241900 -0.000000 -0.000000 
						CHANNELS 3 Zrotation Yrotation Xrotation
						JOINT joint_19
						{
							OFFSET -3.444170 -0.000000 -0.000000 
							CHANNELS 3 Zrotation Yrotation Xrotation
							JOINT joint_20
							{
								OFFSET -0.622530 -0.000000 -0.000000 
								CHANNELS 3 Zrotation Yrotation Xrotation
								End Site
								{
									OFFSET 0.000000 0.000000 0.000000 
								}
							}
						}
					}
				}
			}
		}
	}
	JOINT original_left
	{
		OFFSET -13.400002 0.000000 0.000000 
		CHANNELS 6 Xposition Yposition Zposition Zrotation Yrotation Xrotation
		JOINT joint_1
		{
			OFFSET 1.363060 -1.794630 0.839290 
			CHANNELS 3 Zrotation Yrotation Xrotation
			JOINT joint_2
			{
				OFFSET 2.448110 -6.726130 0.000000 
				CHANNELS 3 Zrotation Yrotation Xrotation
				JOINT joint_3
				{
					OFFSET 2.562200 -7.039590 0.000000 
					CHANNELS 3 Zrotation Yrotation Xrotation
					JOINT joint_4
					{
						OFFSET 0.157640 -0.433110 2.322550 
						CHANNELS 3 Zrotation Yrotation Xrotation
						End Site
						{
							OFFSET 0.000000 0.000000 0.000000 
						}
					}
				}
			}
		}
		JOINT joint_5
		{
			OFFSET -1.305520 -1.794630 0.839290 
			CHANNELS 3 Zrotation Yrotation Xrotation
			JOINT joint_6
			{
				OFFSET -2.542530 -6.985550 0.000000 
				CHANNELS 3 Zrotation Yrotation Xrotation
				JOINT joint_7
				{
					OFFSET -2.568260 -7.056230 0.000000 
					CHANNELS 3 Zrotation Yrotation Xrotation
					JOINT joint_8
					{
						OFFSET -0.164730 -0.452590 2.363150 
						CHANNELS 3 Zrotation Yrotation Xrotation
						End Site
						{
							OFFSET 0.000000 0.000000 0.000000 
						}
					}
				}
			}
		}
		JOINT joint_9
		{
			OFFSET 0.028270 2.035590 -0.193380 
			CHANNELS 3 Zrotation Yrotation Xrotation
			JOINT joint_10
			{
				OFFSET 0.056720 2.048850 -0.042750 
				CHANNELS 3 Zrotation Yrotation Xrotation
				JOINT joint_11
				{
					OFFSET -0.054170 1.746240 0.172020 
					CHANNELS 3 Zrotation Yrotation Xrotation
					JOINT joint_12
					{
						OFFSET 0.104070 1.761360 -0.123970 
						CHANNELS 3 Zrotation Yrotation Xrotation
						End Site
						{
							OFFSET 0.000000 0.000000 0.000000 
						}
					}
				}
				JOINT joint_13
				{
					OFFSET 3.362410 1.200890 -0.311210 
					CHANNELS 3 Zrotation Yrotation Xrotation
					JOINT joint_14
					{
						OFFSET 4.983000 -0.000000 -0.000000 
						CHANNELS 3 Zrotation Yrotation Xrotation
						JOINT joint_15
						{
							OFFSET 3.483560 -0.000000 -0.000000 
							CHANNELS 3 Zrotation Yrotation Xrotation
							JOINT joint_16
							{
								OFFSET 0.715260 -0.000000 -0.000000 
								CHANNELS 3 Zrotation Yrotation Xrotation
								End Site
								{
									OFFSET 0.000000 0.000000 0.000000 
								}
							}
						}
					}
				}
				JOINT joint_17
				{
					OFFSET -3.136600 1.374050 -0.404650 
					CHANNELS 3 Zrotation Yrotation Xrotation
					JOINT joint_18
					{
						OFFSET -5.241900 -0.000000 -0.000000 
						CHANNELS 3 Zrotation Yrotation Xrotation
						JOINT joint_19
						{
							OFFSET -3.444170 -0.000000 -0.000000 
							CHANNELS 3 Zrotation Yrotation Xrotation
							JOINT joint_20
							{
								OFFSET -0.622530 -0.000000 -0.000000 
								CHANNELS 3 Zrotation Yrotation Xrotation
								End Site
								{
									OFFSET 0.000000 0.000000 0.000000 
								}
							}
						}
					}
				}
			}
		}
	}
}
MOTION
Frames: 4
Frame Time: 0.005000
0.086741 12.910301 0.341847 5.075246 4.542052 16.317436 -6.736277 -17.107626 -65.761485 12.369693 22.208246 66.646418 1.547613 -5.637835 -5.475419 -0.015663 -1.103320 -3.119358 -0.141120 -12.938654 -35.618907 -16.545869 -19.835243 79.162227 -1.945137 9.592283 -25.991634 -3.922591 13.473398 -39.415478 2.043914 1.571493 -3.015136 -0.072969 1.174007 -4.318481 9.616590 -9.123346 3.067295 -0.077101 -5.017176 6.616933 -64.511874 -59.046555 58.185193 123.858282 -35.111885 -90.715014 4.077726 -1.620421 -8.822011 -7.003918 0.003102 0.019192 8.183982 39.645095 -43.863144 -50.876785 36.106340 -30.460086 -0.266241 -1.350406 -22.599855 6.941657 -0.011253 -0.005340 0.086741 12.910301 0.341847 5.212056 6.122237 16.283566 -9.370706 -17.462498 -76.153174 13.668593 25.835677 75.402040 0.597278 -7.559185 -4.327422 0.033300 -1.178500 -3.240100 -3.094038 -18.200702 -31.802676 -20.755334 -19.960805 90.493911 -4.046822 10.654234 -26.386894 -4.512400 12.812700 -38.671400 1.004303 2.701410 -3.885510 0.582836 1.247857 -6.648019 8.964693 -9.267759 3.756446 -0.380500 -4.079900 5.473400 -75.934643 -63.142373 66.188721 143.349455 -28.263607 -107.796275 4.182149 -1.052559 -8.884229 -7.125000 0.000000 0.000000 4.034823 43.894010 -46.814839 -47.685622 49.255832 -17.543360 0.792608 -2.912286 -18.377945 7.125000 0.000000 0.000000 
0.079993 12.941209 0.343915 5.643101 4.550547 16.064825 -6.718197 -17.150281 -66.323630 13.236814 22.199288 65.612375 2.291895 -5.283181 -5.904712 -0.072729 -1.182231 -3.437793 -2.022653 -14.107321 -35.631878 -16.856014 -19.820140 78.668261 -2.989667 9.875879 -25.511670 -3.981449 13.556235 -39.689065 1.733656 1.556352 -2.904566 0.125217 0.812808 -4.633801 9.972771 -9.148805 3.597605 -0.286504 -4.890579 6.828973 -64.565184 -60.882428 57.781727 124.143005 -34.262981 -90.589974 3.305701 -1.776961 -8.467171 -7.000965 0.002693 0.024805 9.567400 38.749121 -40.842930 -56.030716 38.025951 -35.571581 -0.474474 -1.334897 -24.987431 6.942062 -0.009869 -0.004433 0.079993 12.941209 0.343915 5.025169 5.824940 16.393716 -8.940730 -17.481566 -76.069092 13.607148 25.816931 75.206069 0.582182 -7.107037 -4.461761 0.036900 -1.240500 -3.410700 -2.750246 -17.972536 -32.014626 -20.634515 -19.991569 90.202314 -4.034357 10.670529 -26.236776 -4.469700 12.760500 -38.478500 1.056229 2.514564 -3.881809 0.656321 1.204961 -6.753734 8.910559 -8.812262 3.788434 -0.482800 -3.852600 5.465700 -75.985108 -63.167480 66.171840 143.460408 -28.150898 -107.861337 4.196440 -1.024133 -9.160159 -7.125000 0.000000 0.000000 7.530860 43.373621 -42.891916 -56.067196 52.706459 -23.413952 0.957813 -2.715942 -22.862989 7.125000 0.000000 0.000000 
0.078034 12.974948 0.346091 5.508231 4.283820 16.519458 -5.867610 -16.784953 -66.531507 12.469152 22.466608 65.449509 2.179598 -4.925427 -6.112640 -0.111284 -1.257745 -3.769553 -2.397349 -14.190004 -34.898322 -17.452395 -20.005493 78.789941 -2.960122 10.084330 -25.927535 -3.999397 13.547975 -39.694471 0.211582 1.943770 -2.946278 0.481805 1.094320 -4.946297 10.244714 -8.385689 4.506333 -0.604630 -4.695053 7.053564 -64.344542 -61.913541 57.987452 124.285209 -33.642291 -90.987757 3.253621 -1.644679 -8.445701 -6.993774 0.001255 0.027696 11.624021 38.482529 -36.968973 -62.178812 39.372072 -40.206913 -0.480143 -1.541368 -27.818399 6.936354 -0.008942 -0.001757 0.078034 12.974948 0.346091 4.816209 5.416357 16.508373 -8.477248 -17.486364 -75.953698 13.550263 25.796286 75.016371 0.564909 -6.571748 -4.667829 0.042300 -1.328000 -3.651700 -2.411231 -17.687446 -32.255676 -20.494910 -20.029150 89.854474 -4.024843 10.717805 -26.073516 -4.431600 12.713600 -38.305500 1.111784 2.301595 -3.872846 0.778840 1.138775 -6.770847 8.843593 -8.294044 3.808648 -0.589000 -3.599800 5.453400 -75.998500 -63.313840 66.082067 143.557790 -28.023292 -107.923775 4.212284 -0.989221 -9.468058 -7.125000 0.000000 0.000000 10.914515 42.991647 -38.708146 -66.616417 55.015927 -31.300565 1.104247 -2.511070 -27.990529 7.125000 0.000000 0.000000 
0.080211 13.011298 0.348268 6.028858 3.912968 16.985270 -5.807034 -16.636630 -66.516637 11.194126 22.906465 65.195187 1.512522 -4.236902 -6.341349 -0.141205 -1.324311 -4.079520 -1.431458 -14.087450 -35.330000 -17.708071 -20.253808 78.113226 -3.715763 9.764236 -26.715377 -3.992561 13.478024 -39.522340 0.874822 1.721735 -4.515144 1.961907 0.985383 -5.147139 9.679059 -7.937522 6.661473 -0.931003 -4.466046 7.185171 -64.009138 -62.567162 56.843355 125.027910 -33.380528 -92.170958 3.736270 -2.285946 -8.527063 -6.984762 -0.000175 0.029823 14.284758 37.158101 -34.394664 -67.940513 40.181999 -44.430387 0.271254 -2.178625 -30.663718 6.925591 -0.007898 -0.000405 0.080211 13.011298 0.348268 4.581349 4.888886 16.634007 -7.983922 -17.458872 -75.811829 13.496951 25.771827 74.830178 0.545036 -5.967948 -4.936720 0.048900 -1.427500 -3.925800 -2.065930 -17.336790 -32.528615 -20.334740 -20.073278 89.449664 -4.018768 10.772352 -25.918141 -4.399800 12.674300 -38.161000 1.168906 2.068177 -3.861081 0.940402 1.044049 -6.652033 8.777472 -7.732083 3.813905 -0.692200 -3.330200 5.432900 -75.962649 -63.624822 65.931045 143.623401 -27.889737 -107.972937 4.228681 -0.949432 -9.806478 -7.125000 0.000000 0.000000 14.058352 42.844386 -34.054351 -78.711564 55.219462 -41.204582 1.206116 -2.304584 -33.212950 7.125000 0.000000 0.000000 
